<svg width="67" height="61" viewBox="0 0 67 61" fill="none" xmlns="http://www.w3.org/2000/svg">
<path d="M21.3031 0.0501436C25.2364 -0.516523 29.4031 3.78348 30.6031 9.71681C31.8031 15.6168 29.6364 20.8835 25.7031 21.4835C21.8031 22.0835 17.6031 17.7835 16.3697 11.8501C15.1364 5.95014 17.3697 0.683477 21.3031 0.0501436ZM45.1364 0.0501436C49.1031 0.683477 51.3031 5.95014 50.1364 11.8501C48.8697 17.7835 44.7031 22.0835 40.7697 21.4835C36.8031 20.8835 34.6364 15.6168 35.8697 9.71681C37.0697 3.78348 41.2364 -0.516523 45.1364 0.0501436ZM3.46974 15.3835C7.26974 13.7501 12.4364 16.7168 15.1364 21.8835C17.6697 27.1501 16.8031 32.6835 13.0364 34.3168C9.26974 35.9501 4.13641 33.0168 1.50307 27.7835C-1.13026 22.5501 -0.196927 16.9835 3.46974 15.3835ZM63.4697 15.3835C67.1364 16.9835 68.0697 22.5501 65.4364 27.7835C62.8031 33.0168 57.6697 35.9501 53.9031 34.3168C50.1364 32.6835 49.2697 27.1501 51.8031 21.8835C54.5031 16.7168 59.6697 13.7501 63.4697 15.3835ZM57.9031 51.3168C58.0364 54.4501 55.6364 57.9168 52.7697 59.2168C46.8031 61.9501 39.7364 56.2835 33.1031 56.2835C26.4697 56.2835 19.3364 62.1835 13.4697 59.2168C10.1364 57.5835 7.83641 53.2501 8.26974 49.6501C8.86974 44.6835 14.8364 42.0168 18.3697 38.3835C23.0697 33.6835 26.4031 24.8501 33.1031 24.8501C39.7697 24.8501 43.3031 33.5501 47.8031 38.3835C51.5031 42.4501 57.6697 45.8835 57.9031 51.3168Z" fill="#628141"/>
</svg>
